<svg width="261" height="80" viewBox="0 0 261 80" fill="none" xmlns="http://www.w3.org/2000/svg">
<path fill-rule="evenodd" clip-rule="evenodd" d="M26.5689 7.83244H53.4246L72.1634 26.5713V53.4269L53.4246 72.1658H26.5689L7.83008 53.4269V26.5713L26.5689 7.83244ZM27.2159 9.39444L9.39207 27.2183V52.7799L27.2159 70.6038H52.7776L70.6014 52.7799V27.2183L52.7776 9.39444H27.2159Z" fill="#00B37E"/>
<path fill-rule="evenodd" clip-rule="evenodd" d="M40 1.3955L78.6045 40L40 78.6045L1.39551 40L40 1.3955ZM40 3.6045L3.6045 40L40 76.3955L76.3955 40L40 3.6045Z" fill="#00B37E"/>
<path d="M51.5705 26.3501C51.3739 26.1224 51.0635 26.019 50.7219 26.0914L26.3451 32.6319C26.0605 32.7199 25.8431 32.9424 25.7655 33.2321C25.6931 33.5167 25.7811 33.822 25.988 34.029L29.486 37.5269L24.3167 38.9189C24.0321 39.0017 23.8148 39.2293 23.7423 39.5191C23.6699 39.8037 23.7578 40.109 23.9648 40.316L37.5219 53.8627C37.6823 54.0231 37.8996 54.1111 38.1169 54.1111C38.1842 54.1111 38.2567 54.1007 38.3239 54.0852C38.6085 54.0128 38.8362 53.7903 38.9293 53.485L40.3006 48.3416L43.8192 51.8654C43.9796 52.0206 44.1918 52.1086 44.4091 52.1086C44.4764 52.1086 44.5488 52.0982 44.6161 52.0827C44.9059 52.0103 45.1284 51.7929 45.2215 51.4876L51.7465 27.1263C51.8241 26.8572 51.7568 26.5623 51.5705 26.3501ZM37.8324 52.2121L25.6155 40.0055L30.6192 38.6602L39.1674 47.2084L37.8324 52.2121ZM44.1297 50.2095L40.7145 46.7944L43.8761 34.9915C43.9693 34.6965 43.8865 34.3757 43.6692 34.1584C43.4518 33.941 43.1362 33.8583 42.8568 33.941L31.0331 37.113L27.6387 33.7185L50.1631 27.6748L44.1297 50.2095Z" fill="#00B37E"/>
<path d="M107.672 28.25V51H103.781V28.25H107.672ZM114.812 28.25V31.375H96.7031V28.25H114.812ZM119.614 37.3125V51H115.848V34.0938H119.442L119.614 37.3125ZM124.786 33.9844L124.754 37.4844C124.525 37.4427 124.275 37.4115 124.004 37.3906C123.744 37.3698 123.484 37.3594 123.223 37.3594C122.577 37.3594 122.01 37.4531 121.52 37.6406C121.03 37.8177 120.619 38.0781 120.286 38.4219C119.963 38.7552 119.713 39.1615 119.536 39.6406C119.359 40.1198 119.254 40.6562 119.223 41.25L118.364 41.3125C118.364 40.25 118.468 39.2656 118.676 38.3594C118.885 37.4531 119.197 36.6562 119.614 35.9688C120.041 35.2812 120.572 34.7448 121.208 34.3594C121.853 33.974 122.598 33.7812 123.442 33.7812C123.671 33.7812 123.916 33.8021 124.176 33.8438C124.447 33.8854 124.65 33.9323 124.786 33.9844ZM130.696 34.0938V51H126.915V34.0938H130.696ZM126.665 29.6562C126.665 29.0833 126.853 28.6094 127.228 28.2344C127.613 27.849 128.144 27.6562 128.821 27.6562C129.488 27.6562 130.014 27.849 130.399 28.2344C130.785 28.6094 130.978 29.0833 130.978 29.6562C130.978 30.2188 130.785 30.6875 130.399 31.0625C130.014 31.4375 129.488 31.625 128.821 31.625C128.144 31.625 127.613 31.4375 127.228 31.0625C126.853 30.6875 126.665 30.2188 126.665 29.6562ZM138.373 27V51H134.591V27H138.373ZM145.736 27V51H141.986V27H145.736ZM145.08 41.9219L143.861 41.9062C143.872 40.7396 144.033 39.6615 144.346 38.6719C144.669 37.6823 145.116 36.8229 145.689 36.0938C146.273 35.3542 146.971 34.7865 147.783 34.3906C148.596 33.9844 149.497 33.7812 150.486 33.7812C151.32 33.7812 152.07 33.8958 152.736 34.125C153.413 34.3542 153.997 34.724 154.486 35.2344C154.976 35.7344 155.346 36.3906 155.596 37.2031C155.856 38.0052 155.986 38.9844 155.986 40.1406V51H152.205V40.1094C152.205 39.2969 152.085 38.651 151.846 38.1719C151.616 37.6927 151.278 37.349 150.83 37.1406C150.382 36.9219 149.835 36.8125 149.189 36.8125C148.512 36.8125 147.913 36.9479 147.393 37.2188C146.882 37.4896 146.455 37.8594 146.111 38.3281C145.768 38.7969 145.507 39.3385 145.33 39.9531C145.163 40.5677 145.08 41.224 145.08 41.9219ZM168.85 47.6094V39.5469C168.85 38.9427 168.741 38.4219 168.522 37.9844C168.303 37.5469 167.97 37.2083 167.522 36.9688C167.084 36.7292 166.532 36.6094 165.866 36.6094C165.251 36.6094 164.72 36.7135 164.272 36.9219C163.824 37.1302 163.475 37.4115 163.225 37.7656C162.975 38.1198 162.85 38.5208 162.85 38.9688H159.1C159.1 38.3021 159.261 37.6562 159.584 37.0312C159.907 36.4062 160.376 35.849 160.991 35.3594C161.605 34.8698 162.34 34.4844 163.194 34.2031C164.048 33.9219 165.006 33.7812 166.069 33.7812C167.34 33.7812 168.465 33.9948 169.444 34.4219C170.433 34.849 171.209 35.4948 171.772 36.3594C172.345 37.2135 172.631 38.2865 172.631 39.5781V47.0938C172.631 47.8646 172.683 48.5573 172.787 49.1719C172.902 49.776 173.064 50.3021 173.272 50.75V51H169.412C169.235 50.5938 169.095 50.0781 168.991 49.4531C168.897 48.8177 168.85 48.2031 168.85 47.6094ZM169.397 40.7188L169.428 43.0469H166.725C166.027 43.0469 165.412 43.1146 164.881 43.25C164.35 43.375 163.907 43.5625 163.553 43.8125C163.199 44.0625 162.933 44.3646 162.756 44.7188C162.579 45.0729 162.491 45.474 162.491 45.9219C162.491 46.3698 162.595 46.7812 162.803 47.1562C163.011 47.5208 163.314 47.8073 163.709 48.0156C164.116 48.224 164.605 48.3281 165.178 48.3281C165.949 48.3281 166.621 48.1719 167.194 47.8594C167.777 47.5365 168.235 47.1458 168.569 46.6875C168.902 46.2188 169.079 45.776 169.1 45.3594L170.319 47.0312C170.194 47.4583 169.98 47.9167 169.678 48.4062C169.376 48.8958 168.98 49.3646 168.491 49.8125C168.011 50.25 167.433 50.6094 166.756 50.8906C166.09 51.1719 165.319 51.3125 164.444 51.3125C163.34 51.3125 162.355 51.0938 161.491 50.6562C160.626 50.2083 159.949 49.6094 159.459 48.8594C158.97 48.099 158.725 47.2396 158.725 46.2812C158.725 45.3854 158.892 44.5938 159.225 43.9062C159.569 43.2083 160.069 42.625 160.725 42.1562C161.392 41.6875 162.204 41.3333 163.162 41.0938C164.121 40.8438 165.215 40.7188 166.444 40.7188H169.397Z" fill="#F1F5F9"/>
<path d="M188.14 28.25V51H184.218V28.25H188.14ZM202.988 34.0938H206.41V50.5312C206.41 52.0521 206.087 53.3438 205.441 54.4062C204.795 55.4688 203.894 56.276 202.738 56.8281C201.582 57.3906 200.243 57.6719 198.723 57.6719C198.077 57.6719 197.358 57.5781 196.566 57.3906C195.785 57.2031 195.025 56.901 194.285 56.4844C193.556 56.0781 192.946 55.5417 192.457 54.875L194.223 52.6562C194.827 53.375 195.493 53.901 196.223 54.2344C196.952 54.5677 197.717 54.7344 198.519 54.7344C199.384 54.7344 200.118 54.5729 200.723 54.25C201.337 53.9375 201.811 53.474 202.144 52.8594C202.478 52.2448 202.644 51.4948 202.644 50.6094V37.9219L202.988 34.0938ZM191.504 42.7344V42.4062C191.504 41.125 191.66 39.9583 191.973 38.9062C192.285 37.8438 192.733 36.9323 193.316 36.1719C193.9 35.401 194.608 34.8125 195.441 34.4062C196.275 33.9896 197.217 33.7812 198.269 33.7812C199.363 33.7812 200.295 33.9792 201.066 34.375C201.848 34.7708 202.499 35.3385 203.019 36.0781C203.54 36.8073 203.946 37.6823 204.238 38.7031C204.54 39.7135 204.764 40.8385 204.91 42.0781V43.125C204.775 44.3333 204.545 45.4375 204.223 46.4375C203.9 47.4375 203.473 48.3021 202.941 49.0312C202.41 49.7604 201.754 50.3229 200.973 50.7188C200.202 51.1146 199.29 51.3125 198.238 51.3125C197.207 51.3125 196.275 51.099 195.441 50.6719C194.618 50.2448 193.91 49.6458 193.316 48.875C192.733 48.1042 192.285 47.1979 191.973 46.1562C191.66 45.1042 191.504 43.9635 191.504 42.7344ZM195.269 42.4062V42.7344C195.269 43.5052 195.342 44.224 195.488 44.8906C195.644 45.5573 195.879 46.1458 196.191 46.6562C196.514 47.1562 196.92 47.5521 197.41 47.8438C197.91 48.125 198.499 48.2656 199.176 48.2656C200.061 48.2656 200.785 48.0781 201.348 47.7031C201.92 47.3281 202.358 46.8229 202.66 46.1875C202.973 45.5417 203.191 44.8229 203.316 44.0312V41.2031C203.254 40.5885 203.124 40.0156 202.926 39.4844C202.738 38.9531 202.483 38.4896 202.16 38.0938C201.837 37.6875 201.431 37.375 200.941 37.1562C200.452 36.9271 199.874 36.8125 199.207 36.8125C198.53 36.8125 197.941 36.9583 197.441 37.25C196.941 37.5417 196.53 37.9427 196.207 38.4531C195.894 38.9635 195.66 39.5573 195.504 40.2344C195.348 40.9115 195.269 41.6354 195.269 42.4062ZM213.571 37.7031V51H209.805V34.0938H213.352L213.571 37.7031ZM212.899 41.9219L211.68 41.9062C211.69 40.7083 211.857 39.6094 212.18 38.6094C212.513 37.6094 212.972 36.75 213.555 36.0312C214.149 35.3125 214.857 34.7604 215.68 34.375C216.503 33.9792 217.42 33.7812 218.43 33.7812C219.243 33.7812 219.977 33.8958 220.633 34.125C221.3 34.3438 221.868 34.7031 222.336 35.2031C222.815 35.7031 223.18 36.3542 223.43 37.1562C223.68 37.9479 223.805 38.9219 223.805 40.0781V51H220.024V40.0625C220.024 39.25 219.904 38.6094 219.664 38.1406C219.435 37.6615 219.097 37.3229 218.649 37.125C218.211 36.9167 217.664 36.8125 217.008 36.8125C216.362 36.8125 215.784 36.9479 215.274 37.2188C214.763 37.4896 214.331 37.8594 213.977 38.3281C213.633 38.7969 213.368 39.3385 213.18 39.9531C212.993 40.5677 212.899 41.224 212.899 41.9219ZM231.2 34.0938V51H227.419V34.0938H231.2ZM227.169 29.6562C227.169 29.0833 227.356 28.6094 227.731 28.2344C228.117 27.849 228.648 27.6562 229.325 27.6562C229.992 27.6562 230.518 27.849 230.903 28.2344C231.289 28.6094 231.481 29.0833 231.481 29.6562C231.481 30.2188 231.289 30.6875 230.903 31.0625C230.518 31.4375 229.992 31.625 229.325 31.625C228.648 31.625 228.117 31.4375 227.731 31.0625C227.356 30.6875 227.169 30.2188 227.169 29.6562ZM242.595 34.0938V36.8438H233.064V34.0938H242.595ZM235.814 29.9531H239.579V46.3281C239.579 46.849 239.652 47.25 239.798 47.5312C239.954 47.8021 240.168 47.9844 240.439 48.0781C240.71 48.1719 241.027 48.2188 241.392 48.2188C241.652 48.2188 241.902 48.2031 242.142 48.1719C242.381 48.1406 242.574 48.1094 242.72 48.0781L242.736 50.9531C242.423 51.0469 242.059 51.1302 241.642 51.2031C241.236 51.276 240.767 51.3125 240.236 51.3125C239.371 51.3125 238.605 51.1615 237.939 50.8594C237.272 50.5469 236.751 50.0417 236.376 49.3438C236.001 48.6458 235.814 47.7188 235.814 46.5625V29.9531ZM252.474 51.3125C251.224 51.3125 250.094 51.1094 249.084 50.7031C248.084 50.2865 247.23 49.7083 246.521 48.9688C245.823 48.2292 245.287 47.3594 244.912 46.3594C244.537 45.3594 244.349 44.2812 244.349 43.125V42.5C244.349 41.1771 244.542 39.9792 244.928 38.9062C245.313 37.8333 245.849 36.9167 246.537 36.1562C247.224 35.3854 248.037 34.7969 248.974 34.3906C249.912 33.9844 250.928 33.7812 252.021 33.7812C253.23 33.7812 254.287 33.9844 255.193 34.3906C256.099 34.7969 256.849 35.3698 257.443 36.1094C258.047 36.8385 258.495 37.7083 258.787 38.7188C259.089 39.7292 259.24 40.8438 259.24 42.0625V43.6719H246.178V40.9688H255.521V40.6719C255.5 39.9948 255.365 39.3594 255.115 38.7656C254.875 38.1719 254.506 37.6927 254.006 37.3281C253.506 36.9635 252.839 36.7812 252.006 36.7812C251.381 36.7812 250.823 36.9167 250.334 37.1875C249.855 37.4479 249.454 37.8281 249.131 38.3281C248.808 38.8281 248.558 39.4323 248.381 40.1406C248.214 40.8385 248.131 41.625 248.131 42.5V43.125C248.131 43.8646 248.23 44.5521 248.428 45.1875C248.636 45.8125 248.938 46.3594 249.334 46.8281C249.73 47.2969 250.209 47.6667 250.771 47.9375C251.334 48.1979 251.974 48.3281 252.693 48.3281C253.599 48.3281 254.407 48.1458 255.115 47.7812C255.823 47.4167 256.438 46.901 256.959 46.2344L258.943 48.1562C258.579 48.6875 258.105 49.1979 257.521 49.6875C256.938 50.1667 256.224 50.5573 255.381 50.8594C254.547 51.1615 253.579 51.3125 252.474 51.3125Z" fill="#00B37E"/>
<a href="https://www.figma.com/file/nlsAtEkPJEItT02kchObzI/NLW-eSports?node-id=0%3A1">
<rect fill="black" fill-opacity="0" y="-2.75" width="164.224" height="37.5"/>
</a>
</svg>
