<svg width="80" height="80" viewBox="0 0 80 80" fill="none" xmlns="http://www.w3.org/2000/svg">
<path fill-rule="evenodd" clip-rule="evenodd" d="M26.5736 7.83416H53.4292L72.1681 26.573V53.4286L53.4292 72.1675H26.5736L7.83472 53.4286V26.573L26.5736 7.83416ZM27.2206 9.39615L9.39671 27.22V52.7816L27.2206 70.6055H52.7822L70.6061 52.7816V27.22L52.7822 9.39615H27.2206Z" fill="#42D3FF"/>
<path fill-rule="evenodd" clip-rule="evenodd" d="M40 1.3955L78.6045 40L40 78.6045L1.3955 40L40 1.3955ZM40 3.6045L3.6045 40L40 76.3955L76.3955 40L40 3.6045Z" fill="#42D3FF"/>
<path d="M28.2596 46.7815V45.9794L27.2247 46.5797L27.9129 47.7802L28.953 47.1799L28.2596 46.7815V46.7815Z" fill="#42D3FF"/>
<path d="M28.953 47.1799L27.9129 47.7802L27.2247 46.5797L28.2596 45.9794V46.7815L28.953 47.1799Z" fill="#42D3FF"/>
<path d="M52.7802 32.221L40.3459 25.044C40.1338 24.9199 39.8699 24.9199 39.6526 25.044L27.2235 32.221C27.0062 32.3452 26.8768 32.5729 26.8768 32.8213V47.1804C26.8768 47.4287 27.0062 47.6564 27.2235 47.7806L39.6526 54.9576C39.7612 55.0197 39.8802 55.0507 39.9993 55.0507C40.1183 55.0507 40.2425 55.0197 40.3459 54.9576L52.7802 47.7806C52.9975 47.6564 53.1268 47.4287 53.1268 47.1804V32.8213C53.1268 32.5729 52.9975 32.3452 52.7802 32.221ZM28.9518 47.1804L39.9993 40.8003L51.0467 47.1804L39.9993 53.5605L28.9518 47.1804L27.9117 47.7806L27.2235 46.5801L28.2584 45.9799V33.2249L39.9993 26.4463L51.0467 32.8213L28.2584 45.9799V46.7819L28.9518 47.1804V47.1804Z" fill="#42D3FF"/>
</svg>
