<svg width="80" height="80" viewBox="0 0 80 80" fill="none" xmlns="http://www.w3.org/2000/svg">
<path fill-rule="evenodd" clip-rule="evenodd" d="M26.5689 7.83244H53.4246L72.1634 26.5713V53.4269L53.4246 72.1658H26.5689L7.83008 53.4269V26.5713L26.5689 7.83244ZM27.2159 9.39444L9.39207 27.2183V52.7799L27.2159 70.6038H52.7776L70.6014 52.7799V27.2183L52.7776 9.39444H27.2159Z" fill="#00B37E"/>
<path fill-rule="evenodd" clip-rule="evenodd" d="M40 1.3955L78.6045 40L40 78.6045L1.3955 40L40 1.3955ZM40 3.6045L3.6045 40L40 76.3955L76.3955 40L40 3.6045Z" fill="#00B37E"/>
<path d="M51.5705 26.3501C51.3739 26.1224 51.0635 26.019 50.7219 26.0914L26.3451 32.6319C26.0605 32.7199 25.8431 32.9424 25.7655 33.2321C25.6931 33.5167 25.7811 33.822 25.988 34.029L29.486 37.5269L24.3167 38.9189C24.0321 39.0017 23.8148 39.2293 23.7423 39.5191C23.6699 39.8037 23.7578 40.109 23.9648 40.316L37.5219 53.8627C37.6823 54.0231 37.8996 54.1111 38.1169 54.1111C38.1842 54.1111 38.2567 54.1007 38.3239 54.0852C38.6085 54.0128 38.8362 53.7903 38.9293 53.485L40.3006 48.3416L43.8192 51.8654C43.9796 52.0206 44.1918 52.1086 44.4091 52.1086C44.4764 52.1086 44.5488 52.0982 44.6161 52.0827C44.9059 52.0103 45.1284 51.7929 45.2215 51.4876L51.7465 27.1263C51.8241 26.8572 51.7568 26.5623 51.5705 26.3501V26.3501ZM37.8324 52.2121L25.6155 40.0055L30.6192 38.6602L39.1674 47.2084L37.8324 52.2121V52.2121ZM44.1297 50.2095L40.7145 46.7944L43.8761 34.9915C43.9693 34.6965 43.8865 34.3757 43.6692 34.1584C43.4518 33.941 43.1362 33.8583 42.8568 33.941L31.0331 37.113L27.6387 33.7185L50.1631 27.6748L44.1297 50.2095Z" fill="#00B37E"/>
</svg>
