<svg width="297" height="80" viewBox="0 0 297 80" fill="none" xmlns="http://www.w3.org/2000/svg">
<path fill-rule="evenodd" clip-rule="evenodd" d="M26.5736 7.83416H53.4292L72.1681 26.573V53.4286L53.4292 72.1675H26.5736L7.83472 53.4286V26.573L26.5736 7.83416ZM27.2206 9.39615L9.39671 27.22V52.7816L27.2206 70.6055H52.7822L70.6061 52.7816V27.22L52.7822 9.39615H27.2206Z" fill="#42D3FF"/>
<path fill-rule="evenodd" clip-rule="evenodd" d="M40 1.3955L78.6045 40L40 78.6045L1.39551 40L40 1.3955ZM40 3.6045L3.6045 40L40 76.3955L76.3955 40L40 3.6045Z" fill="#42D3FF"/>
<path d="M28.2596 46.7815V45.9794L27.2247 46.5797L27.9129 47.7802L28.953 47.1799L28.2596 46.7815Z" fill="#42D3FF"/>
<path d="M28.953 47.1799L27.9129 47.7802L27.2247 46.5797L28.2596 45.9794V46.7815L28.953 47.1799Z" fill="#42D3FF"/>
<path d="M52.7802 32.221L40.3459 25.044C40.1338 24.9199 39.8699 24.9199 39.6526 25.044L27.2235 32.221C27.0062 32.3452 26.8768 32.5729 26.8768 32.8213V47.1804C26.8768 47.4287 27.0062 47.6564 27.2235 47.7806L39.6526 54.9576C39.7612 55.0197 39.8802 55.0507 39.9993 55.0507C40.1183 55.0507 40.2425 55.0197 40.3459 54.9576L52.7802 47.7806C52.9975 47.6564 53.1268 47.4287 53.1268 47.1804V32.8213C53.1268 32.5729 52.9975 32.3452 52.7802 32.221ZM28.9518 47.1804L39.9993 40.8003L51.0467 47.1804L39.9993 53.5605L28.9518 47.1804L27.9117 47.7806L27.2235 46.5801L28.2584 45.9799V33.2249L39.9993 26.4463L51.0467 32.8213L28.2584 45.9799V46.7819L28.9518 47.1804Z" fill="#42D3FF"/>
<path d="M107.672 28.25V51H103.781V28.25H107.672ZM114.812 28.25V31.375H96.7031V28.25H114.812ZM119.614 37.3125V51H115.848V34.0938H119.442L119.614 37.3125ZM124.786 33.9844L124.754 37.4844C124.525 37.4427 124.275 37.4115 124.004 37.3906C123.744 37.3698 123.484 37.3594 123.223 37.3594C122.577 37.3594 122.01 37.4531 121.52 37.6406C121.03 37.8177 120.619 38.0781 120.286 38.4219C119.963 38.7552 119.713 39.1615 119.536 39.6406C119.359 40.1198 119.254 40.6562 119.223 41.25L118.364 41.3125C118.364 40.25 118.468 39.2656 118.676 38.3594C118.885 37.4531 119.197 36.6562 119.614 35.9688C120.041 35.2812 120.572 34.7448 121.208 34.3594C121.853 33.974 122.598 33.7812 123.442 33.7812C123.671 33.7812 123.916 33.8021 124.176 33.8438C124.447 33.8854 124.65 33.9323 124.786 33.9844ZM130.696 34.0938V51H126.915V34.0938H130.696ZM126.665 29.6562C126.665 29.0833 126.853 28.6094 127.228 28.2344C127.613 27.849 128.144 27.6562 128.821 27.6562C129.488 27.6562 130.014 27.849 130.399 28.2344C130.785 28.6094 130.978 29.0833 130.978 29.6562C130.978 30.2188 130.785 30.6875 130.399 31.0625C130.014 31.4375 129.488 31.625 128.821 31.625C128.144 31.625 127.613 31.4375 127.228 31.0625C126.853 30.6875 126.665 30.2188 126.665 29.6562ZM138.373 27V51H134.591V27H138.373ZM145.736 27V51H141.986V27H145.736ZM145.08 41.9219L143.861 41.9062C143.872 40.7396 144.033 39.6615 144.346 38.6719C144.669 37.6823 145.116 36.8229 145.689 36.0938C146.273 35.3542 146.971 34.7865 147.783 34.3906C148.596 33.9844 149.497 33.7812 150.486 33.7812C151.32 33.7812 152.07 33.8958 152.736 34.125C153.413 34.3542 153.997 34.724 154.486 35.2344C154.976 35.7344 155.346 36.3906 155.596 37.2031C155.856 38.0052 155.986 38.9844 155.986 40.1406V51H152.205V40.1094C152.205 39.2969 152.085 38.651 151.846 38.1719C151.616 37.6927 151.278 37.349 150.83 37.1406C150.382 36.9219 149.835 36.8125 149.189 36.8125C148.512 36.8125 147.913 36.9479 147.393 37.2188C146.882 37.4896 146.455 37.8594 146.111 38.3281C145.768 38.7969 145.507 39.3385 145.33 39.9531C145.163 40.5677 145.08 41.224 145.08 41.9219ZM168.85 47.6094V39.5469C168.85 38.9427 168.741 38.4219 168.522 37.9844C168.303 37.5469 167.97 37.2083 167.522 36.9688C167.084 36.7292 166.532 36.6094 165.866 36.6094C165.251 36.6094 164.72 36.7135 164.272 36.9219C163.824 37.1302 163.475 37.4115 163.225 37.7656C162.975 38.1198 162.85 38.5208 162.85 38.9688H159.1C159.1 38.3021 159.261 37.6562 159.584 37.0312C159.907 36.4062 160.376 35.849 160.991 35.3594C161.605 34.8698 162.34 34.4844 163.194 34.2031C164.048 33.9219 165.006 33.7812 166.069 33.7812C167.34 33.7812 168.465 33.9948 169.444 34.4219C170.433 34.849 171.209 35.4948 171.772 36.3594C172.345 37.2135 172.631 38.2865 172.631 39.5781V47.0938C172.631 47.8646 172.683 48.5573 172.787 49.1719C172.902 49.776 173.064 50.3021 173.272 50.75V51H169.412C169.235 50.5938 169.095 50.0781 168.991 49.4531C168.897 48.8177 168.85 48.2031 168.85 47.6094ZM169.397 40.7188L169.428 43.0469H166.725C166.027 43.0469 165.412 43.1146 164.881 43.25C164.35 43.375 163.907 43.5625 163.553 43.8125C163.199 44.0625 162.933 44.3646 162.756 44.7188C162.579 45.0729 162.491 45.474 162.491 45.9219C162.491 46.3698 162.595 46.7812 162.803 47.1562C163.011 47.5208 163.314 47.8073 163.709 48.0156C164.116 48.224 164.605 48.3281 165.178 48.3281C165.949 48.3281 166.621 48.1719 167.194 47.8594C167.777 47.5365 168.235 47.1458 168.569 46.6875C168.902 46.2188 169.079 45.776 169.1 45.3594L170.319 47.0312C170.194 47.4583 169.98 47.9167 169.678 48.4062C169.376 48.8958 168.98 49.3646 168.491 49.8125C168.011 50.25 167.433 50.6094 166.756 50.8906C166.09 51.1719 165.319 51.3125 164.444 51.3125C163.34 51.3125 162.355 51.0938 161.491 50.6562C160.626 50.2083 159.949 49.6094 159.459 48.8594C158.97 48.099 158.725 47.2396 158.725 46.2812C158.725 45.3854 158.892 44.5938 159.225 43.9062C159.569 43.2083 160.069 42.625 160.725 42.1562C161.392 41.6875 162.204 41.3333 163.162 41.0938C164.121 40.8438 165.215 40.7188 166.444 40.7188H169.397Z" fill="#F1F5F9"/>
<path d="M198.843 47.8906V51H186.765V47.8906H198.843ZM187.874 28.25V51H183.952V28.25H187.874ZM197.265 37.75V40.8125H186.765V37.75H197.265ZM198.765 28.25V31.375H186.765V28.25H198.765ZM204.066 34.0938L207.285 39.7031L210.566 34.0938H214.707L209.582 42.3906L214.91 51H210.769L207.332 45.1562L203.894 51H199.738L205.051 42.3906L199.941 34.0938H204.066ZM220.586 37.3438V57.5H216.821V34.0938H220.289L220.586 37.3438ZM231.602 42.3906V42.7188C231.602 43.9479 231.456 45.0885 231.164 46.1406C230.883 47.1823 230.461 48.0938 229.899 48.875C229.347 49.6458 228.664 50.2448 227.852 50.6719C227.039 51.099 226.102 51.3125 225.039 51.3125C223.987 51.3125 223.065 51.1198 222.274 50.7344C221.493 50.3385 220.831 49.7812 220.289 49.0625C219.748 48.3438 219.31 47.5 218.977 46.5312C218.654 45.5521 218.425 44.4792 218.289 43.3125V42.0469C218.425 40.8073 218.654 39.6823 218.977 38.6719C219.31 37.6615 219.748 36.7917 220.289 36.0625C220.831 35.3333 221.493 34.7708 222.274 34.375C223.055 33.9792 223.966 33.7812 225.008 33.7812C226.071 33.7812 227.013 33.9896 227.836 34.4062C228.659 34.8125 229.352 35.3958 229.914 36.1562C230.477 36.9062 230.899 37.8125 231.18 38.875C231.461 39.9271 231.602 41.099 231.602 42.3906ZM227.836 42.7188V42.3906C227.836 41.6094 227.763 40.8854 227.618 40.2188C227.472 39.5417 227.243 38.9479 226.93 38.4375C226.618 37.9271 226.216 37.5312 225.727 37.25C225.248 36.9583 224.67 36.8125 223.993 36.8125C223.326 36.8125 222.753 36.9271 222.274 37.1562C221.795 37.375 221.394 37.6823 221.071 38.0781C220.748 38.474 220.498 38.9375 220.321 39.4688C220.144 39.9896 220.019 40.5573 219.946 41.1719V44.2031C220.071 44.9531 220.284 45.6406 220.586 46.2656C220.888 46.8906 221.315 47.3906 221.868 47.7656C222.43 48.1302 223.149 48.3125 224.024 48.3125C224.701 48.3125 225.279 48.1667 225.758 47.875C226.237 47.5833 226.628 47.1823 226.93 46.6719C227.243 46.151 227.472 45.5521 227.618 44.875C227.763 44.1979 227.836 43.4792 227.836 42.7188ZM238.356 27V51H234.575V27H238.356ZM241.283 42.7344V42.375C241.283 41.1562 241.46 40.026 241.814 38.9844C242.168 37.9323 242.678 37.0208 243.345 36.25C244.022 35.4688 244.845 34.8646 245.814 34.4375C246.793 34 247.897 33.7812 249.126 33.7812C250.366 33.7812 251.47 34 252.439 34.4375C253.418 34.8646 254.246 35.4688 254.923 36.25C255.6 37.0208 256.116 37.9323 256.47 38.9844C256.824 40.026 257.001 41.1562 257.001 42.375V42.7344C257.001 43.9531 256.824 45.0833 256.47 46.125C256.116 47.1667 255.6 48.0781 254.923 48.8594C254.246 49.6302 253.423 50.2344 252.454 50.6719C251.486 51.099 250.387 51.3125 249.158 51.3125C247.918 51.3125 246.809 51.099 245.829 50.6719C244.861 50.2344 244.038 49.6302 243.361 48.8594C242.684 48.0781 242.168 47.1667 241.814 46.125C241.46 45.0833 241.283 43.9531 241.283 42.7344ZM245.048 42.375V42.7344C245.048 43.4948 245.126 44.2135 245.283 44.8906C245.439 45.5677 245.684 46.1615 246.017 46.6719C246.35 47.1823 246.777 47.5833 247.298 47.875C247.819 48.1667 248.439 48.3125 249.158 48.3125C249.855 48.3125 250.46 48.1667 250.97 47.875C251.491 47.5833 251.918 47.1823 252.251 46.6719C252.585 46.1615 252.829 45.5677 252.986 44.8906C253.152 44.2135 253.236 43.4948 253.236 42.7344V42.375C253.236 41.625 253.152 40.9167 252.986 40.25C252.829 39.5729 252.579 38.974 252.236 38.4531C251.902 37.9323 251.475 37.526 250.954 37.2344C250.444 36.9323 249.835 36.7812 249.126 36.7812C248.418 36.7812 247.803 36.9323 247.283 37.2344C246.772 37.526 246.35 37.9323 246.017 38.4531C245.684 38.974 245.439 39.5729 245.283 40.25C245.126 40.9167 245.048 41.625 245.048 42.375ZM263.459 37.3125V51H259.693V34.0938H263.287L263.459 37.3125ZM268.631 33.9844L268.599 37.4844C268.37 37.4427 268.12 37.4115 267.849 37.3906C267.589 37.3698 267.329 37.3594 267.068 37.3594C266.422 37.3594 265.855 37.4531 265.365 37.6406C264.875 37.8177 264.464 38.0781 264.131 38.4219C263.808 38.7552 263.558 39.1615 263.381 39.6406C263.204 40.1198 263.099 40.6562 263.068 41.25L262.209 41.3125C262.209 40.25 262.313 39.2656 262.521 38.3594C262.73 37.4531 263.042 36.6562 263.459 35.9688C263.886 35.2812 264.417 34.7448 265.053 34.3594C265.698 33.974 266.443 33.7812 267.287 33.7812C267.516 33.7812 267.761 33.8021 268.021 33.8438C268.292 33.8854 268.495 33.9323 268.631 33.9844ZM277.651 51.3125C276.401 51.3125 275.27 51.1094 274.26 50.7031C273.26 50.2865 272.406 49.7083 271.697 48.9688C271 48.2292 270.463 47.3594 270.088 46.3594C269.713 45.3594 269.526 44.2812 269.526 43.125V42.5C269.526 41.1771 269.718 39.9792 270.104 38.9062C270.489 37.8333 271.026 36.9167 271.713 36.1562C272.401 35.3854 273.213 34.7969 274.151 34.3906C275.088 33.9844 276.104 33.7812 277.197 33.7812C278.406 33.7812 279.463 33.9844 280.369 34.3906C281.276 34.7969 282.026 35.3698 282.619 36.1094C283.224 36.8385 283.671 37.7083 283.963 38.7188C284.265 39.7292 284.416 40.8438 284.416 42.0625V43.6719H271.354V40.9688H280.697V40.6719C280.677 39.9948 280.541 39.3594 280.291 38.7656C280.052 38.1719 279.682 37.6927 279.182 37.3281C278.682 36.9635 278.015 36.7812 277.182 36.7812C276.557 36.7812 276 36.9167 275.51 37.1875C275.031 37.4479 274.63 37.8281 274.307 38.3281C273.984 38.8281 273.734 39.4323 273.557 40.1406C273.39 40.8385 273.307 41.625 273.307 42.5V43.125C273.307 43.8646 273.406 44.5521 273.604 45.1875C273.812 45.8125 274.114 46.3594 274.51 46.8281C274.906 47.2969 275.385 47.6667 275.947 47.9375C276.51 48.1979 277.151 48.3281 277.869 48.3281C278.776 48.3281 279.583 48.1458 280.291 47.7812C281 47.4167 281.614 46.901 282.135 46.2344L284.119 48.1562C283.755 48.6875 283.281 49.1979 282.697 49.6875C282.114 50.1667 281.401 50.5573 280.557 50.8594C279.724 51.1615 278.755 51.3125 277.651 51.3125ZM290.655 37.3125V51H286.889V34.0938H290.483L290.655 37.3125ZM295.827 33.9844L295.796 37.4844C295.566 37.4427 295.316 37.4115 295.046 37.3906C294.785 37.3698 294.525 37.3594 294.264 37.3594C293.619 37.3594 293.051 37.4531 292.561 37.6406C292.072 37.8177 291.66 38.0781 291.327 38.4219C291.004 38.7552 290.754 39.1615 290.577 39.6406C290.4 40.1198 290.296 40.6562 290.264 41.25L289.405 41.3125C289.405 40.25 289.509 39.2656 289.717 38.3594C289.926 37.4531 290.238 36.6562 290.655 35.9688C291.082 35.2812 291.613 34.7448 292.249 34.3594C292.895 33.974 293.639 33.7812 294.483 33.7812C294.712 33.7812 294.957 33.8021 295.217 33.8438C295.488 33.8854 295.691 33.9323 295.827 33.9844Z" fill="#42D3FF"/>
<a href="https://www.figma.com/file/nlsAtEkPJEItT02kchObzI/NLW-eSports?node-id=79%3A2502">
<rect fill="black" fill-opacity="0" y="-2.75" width="200.249" height="37.5"/>
</a>
</svg>
